{
  "accessors": [
    {
      "bufferView": 2,
      "componentType": 5126,
      "count": 5610,
      "max": [
        11.888774871826172,
        20.201398849487305,
        7.4358134269714355
      ],
      "min": [
        0.73694896697998047,
        0.62213993072509766,
        0
      ],
      "type": "VEC3"
    },
    {
      "bufferView": 2,
      "byteOffset": 67320,
      "componentType": 5126,
      "count": 5610,
      "max": [
        0.99964630603790283,
        0.99994492530822754,
        0.96850353479385376
      ],
      "min": [
        -0.96831119060516357,
        -0.99565386772155762,
        -0.99994128942489624
      ],
      "type": "VEC3"
    },
    {
      "bufferView": 3,
      "componentType": 5126,
      "count": 5610,
      "max": [
        0.88422244787216187,
        0.99999797344207764,
        0.99876123666763306,
        1
      ],
      "min": [
        -0.89177906513214111,
        -0.63805615901947021,
        -0.99514615535736084,
        -1
      ],
      "type": "VEC4"
    },
    {
      "bufferView": 3,
      "byteOffset": 89760,
      "componentType": 5126,
      "count": 5610,
      "max": [
        0.75294101238250732,
        0.75294101238250732,
        0.75294101238250732,
        1
      ],
      "min": [
        0.75294101238250732,
        0.75294101238250732,
        0.75294101238250732,
        1
      ],
      "type": "VEC4"
    },
    {
      "bufferView": 1,
      "componentType": 5126,
      "count": 5610,
      "max": [
        0.98961299657821655,
        0.99797898530960083
      ],
      "min": [
        0.1494240015745163,
        0.32339400053024292
      ],
      "type": "VEC2"
    },
    {
      "bufferView": 0,
      "componentType": 5125,
      "count": 31635,
      "max": [
        5609
      ],
      "min": [
        0
      ],
      "type": "SCALAR"
    },
    {
      "bufferView": 2,
      "byteOffset": 134640,
      "componentType": 5126,
      "count": 9136,
      "max": [
        10.542274475097656,
        18.968788146972656,
        13.99388313293457
      ],
      "min": [
        0.065452098846435547,
        0,
        0.39557313919067383
      ],
      "type": "VEC3"
    },
    {
      "bufferView": 2,
      "byteOffset": 244272,
      "componentType": 5126,
      "count": 9136,
      "max": [
        0.99936240911483765,
        0.9907875657081604,
        0.99990284442901611
      ],
      "min": [
        -0.99971812963485718,
        -0.99994003772735596,
        -0.99994200468063354
      ],
      "type": "VEC3"
    },
    {
      "bufferView": 3,
      "byteOffset": 179520,
      "componentType": 5126,
      "count": 9136,
      "max": [
        0.87037545442581177,
        0.9999963641166687,
        0.99484086036682129,
        1
      ],
      "min": [
        -0.99452173709869385,
        -0.99847447872161865,
        -0.98441559076309204,
        -1
      ],
      "type": "VEC4"
    },
    {
      "bufferView": 3,
      "byteOffset": 325696,
      "componentType": 5126,
      "count": 9136,
      "max": [
        0.75294101238250732,
        0.75294101238250732,
        0.75294101238250732,
        1
      ],
      "min": [
        0.75294101238250732,
        0.75294101238250732,
        0.75294101238250732,
        1
      ],
      "type": "VEC4"
    },
    {
      "bufferView": 1,
      "byteOffset": 44880,
      "componentType": 5126,
      "count": 9136,
      "max": [
        0.85764002799987793,
        0.99800401926040649
      ],
      "min": [
        0.12699800729751587,
        0.035560999065637589
      ],
      "type": "VEC2"
    },
    {
      "bufferView": 0,
      "byteOffset": 126540,
      "componentType": 5125,
      "count": 52317,
      "max": [
        9135
      ],
      "min": [
        0
      ],
      "type": "SCALAR"
    },
    {
      "bufferView": 2,
      "byteOffset": 353904,
      "componentType": 5126,
      "count": 8665,
      "max": [
        10.854148864746094,
        12.082622528076172,
        14.215190887451172
      ],
      "min": [
        0.013740062713623047,
        0.98252487182617188,
        2.4414854049682617
      ],
      "type": "VEC3"
    },
    {
      "bufferView": 2,
      "byteOffset": 457884,
      "componentType": 5126,
      "count": 8665,
      "max": [
        0.99989652633666992,
        0.99961227178573608,
        0.99995172023773193
      ],
      "min": [
        -0.99990755319595337,
        -0.99994665384292603,
        -0.99973106384277344
      ],
      "type": "VEC3"
    },
    {
      "bufferView": 3,
      "byteOffset": 471872,
      "componentType": 5126,
      "count": 8665,
      "max": [
        0.92528623342514038,
        0.99880313873291016,
        0.98697268962860107,
        1
      ],
      "min": [
        -0.99997830390930176,
        -0.95707994699478149,
        -0.97299551963806152,
        -1
      ],
      "type": "VEC4"
    },
    {
      "bufferView": 3,
      "byteOffset": 610512,
      "componentType": 5126,
      "count": 8665,
      "max": [
        0.75294101238250732,
        0.75294101238250732,
        0.75294101238250732,
        1
      ],
      "min": [
        0.75294101238250732,
        0.75294101238250732,
        0.75294101238250732,
        1
      ],
      "type": "VEC4"
    },
    {
      "bufferView": 1,
      "byteOffset": 117968,
      "componentType": 5126,
      "count": 8665,
      "max": [
        0.96700799465179443,
        0.98217999935150146
      ],
      "min": [
        0.28326898813247681,
        0.043611999601125717
      ],
      "type": "VEC2"
    },
    {
      "bufferView": 0,
      "byteOffset": 335808,
      "componentType": 5125,
      "count": 49410,
      "max": [
        8664
      ],
      "min": [
        0
      ],
      "type": "SCALAR"
    },
    {
      "bufferView": 2,
      "byteOffset": 561864,
      "componentType": 5126,
      "count": 14565,
      "max": [
        10.959963798522949,
        20.236724853515625,
        14.856082916259766
      ],
      "min": [
        0.34592771530151367,
        1.3268017768859863,
        0.77280712127685547
      ],
      "type": "VEC3"
    },
    {
      "bufferView": 2,
      "byteOffset": 736644,
      "componentType": 5126,
      "count": 14565,
      "max": [
        0.9999992847442627,
        0.99949491024017334,
        0.99999839067459106
      ],
      "min": [
        -0.99925869703292847,
        -0.99952083826065063,
        -0.99957579374313354
      ],
      "type": "VEC3"
    },
    {
      "bufferView": 3,
      "byteOffset": 749152,
      "componentType": 5126,
      "count": 14565,
      "max": [
        0.91159993410110474,
        0.99451595544815063,
        0.99916446208953857,
        1
      ],
      "min": [
        -0.99999606609344482,
        -0.98517876863479614,
        -0.98156851530075073,
        -1
      ],
      "type": "VEC4"
    },
    {
      "bufferView": 3,
      "byteOffset": 982192,
      "componentType": 5126,
      "count": 14565,
      "max": [
        0.75294101238250732,
        0.75294101238250732,
        0.75294101238250732,
        1
      ],
      "min": [
        0.75294101238250732,
        0.75294101238250732,
        0.75294101238250732,
        1
      ],
      "type": "VEC4"
    },
    {
      "bufferView": 1,
      "byteOffset": 187288,
      "componentType": 5126,
      "count": 14565,
      "max": [
        0.94359701871871948,
        0.99798297882080078
      ],
      "min": [
        0.17587600648403168,
        0.0057740001939237118
      ],
      "type": "VEC2"
    },
    {
      "bufferView": 0,
      "byteOffset": 533448,
      "componentType": 5125,
      "count": 83655,
      "max": [
        14564
      ],
      "min": [
        0
      ],
      "type": "SCALAR"
    },
    {
      "bufferView": 2,
      "byteOffset": 911424,
      "componentType": 5126,
      "count": 41685,
      "max": [
        13.647069931030273,
        19.892379760742188,
        14.78729248046875
      ],
      "min": [
        0.049661159515380859,
        0,
        0.33912229537963867
      ],
      "type": "VEC3"
    },
    {
      "bufferView": 2,
      "byteOffset": 1411644,
      "componentType": 5126,
      "count": 41685,
      "max": [
        0.99998068809509277,
        0.99996203184127808,
        0.99992829561233521
      ],
      "min": [
        -0.99996596574783325,
        -0.99997442960739136,
        -0.99991458654403687
      ],
      "type": "VEC3"
    },
    {
      "bufferView": 3,
      "byteOffset": 1215232,
      "componentType": 5126,
      "count": 41685,
      "max": [
        0.99922794103622437,
        0.99999320507049561,
        0.99998855590820312,
        1
      ],
      "min": [
        -0.99984097480773926,
        -0.99989473819732666,
        -0.99935668706893921,
        -1
      ],
      "type": "VEC4"
    },
    {
      "bufferView": 3,
      "byteOffset": 1882192,
      "componentType": 5126,
      "count": 41685,
      "max": [
        0.75294101238250732,
        0.75294101238250732,
        0.75294101238250732,
        1
      ],
      "min": [
        0.75294101238250732,
        0.75294101238250732,
        0.75294101238250732,
        1
      ],
      "type": "VEC4"
    },
    {
      "bufferView": 1,
      "byteOffset": 303808,
      "componentType": 5126,
      "count": 41685,
      "max": [
        0.99773198366165161,
        0.99804002046585083
      ],
      "min": [
        0.0019660000689327717,
        0.0090269995853304863
      ],
      "type": "VEC2"
    },
    {
      "bufferView": 0,
      "byteOffset": 868068,
      "componentType": 5125,
      "count": 230688,
      "max": [
        41684
      ],
      "min": [
        0
      ],
      "type": "SCALAR"
    },
    {
      "bufferView": 2,
      "byteOffset": 1911864,
      "componentType": 5126,
      "count": 14099,
      "max": [
        13.651174545288086,
        19.926837921142578,
        13.726984024047852
      ],
      "min": [
        0,
        0.55002117156982422,
        0.2366790771484375
      ],
      "type": "VEC3"
    },
    {
      "bufferView": 2,
      "byteOffset": 2081052,
      "componentType": 5126,
      "count": 14099,
      "max": [
        0.99994373321533203,
        0.99991482496261597,
        0.99966835975646973
      ],
      "min": [
        -0.9999813437461853,
        -0.99996870756149292,
        -0.99982148408889771
      ],
      "type": "VEC3"
    },
    {
      "bufferView": 3,
      "byteOffset": 2549152,
      "componentType": 5126,
      "count": 14099,
      "max": [
        0.90243732929229736,
        0.99987763166427612,
        0.99880218505859375,
        1
      ],
      "min": [
        -0.99992865324020386,
        -0.99977618455886841,
        -0.99953806400299072,
        -1
      ],
      "type": "VEC4"
    },
    {
      "bufferView": 3,
      "byteOffset": 2774736,
      "componentType": 5126,
      "count": 14099,
      "max": [
        0.75294101238250732,
        0.75294101238250732,
        0.75294101238250732,
        1
      ],
      "min": [
        0.75294101238250732,
        0.75294101238250732,
        0.75294101238250732,
        1
      ],
      "type": "VEC4"
    },
    {
      "bufferView": 1,
      "byteOffset": 637288,
      "componentType": 5126,
      "count": 14099,
      "max": [
        0.99502897262573242,
        0.99597400426864624
      ],
      "min": [
        0.0041430001147091389,
        0.052221000194549561
      ],
      "type": "VEC2"
    },
    {
      "bufferView": 0,
      "byteOffset": 1790820,
      "componentType": 5125,
      "count": 78330,
      "max": [
        14098
      ],
      "min": [
        0
      ],
      "type": "SCALAR"
    },
    {
      "bufferView": 2,
      "byteOffset": 2250240,
      "componentType": 5126,
      "count": 626,
      "max": [
        10.379406929016113,
        18.677028656005859,
        14.426494598388672
      ],
      "min": [
        0.033249855041503906,
        2.3080520629882812,
        1.6143512725830078
      ],
      "type": "VEC3"
    },
    {
      "bufferView": 2,
      "byteOffset": 2257752,
      "componentType": 5126,
      "count": 626,
      "max": [
        0.92307698726654053,
        0.92219448089599609,
        0.93554210662841797
      ],
      "min": [
        -0.97571885585784912,
        -0.47409304976463318,
        -0.98037976026535034
      ],
      "type": "VEC3"
    },
    {
      "bufferView": 3,
      "byteOffset": 3000320,
      "componentType": 5126,
      "count": 626,
      "max": [
        0,
        0,
        0,
        1
      ],
      "min": [
        0,
        0,
        0,
        1
      ],
      "type": "VEC4"
    },
    {
      "bufferView": 3,
      "byteOffset": 3010336,
      "componentType": 5126,
      "count": 626,
      "max": [
        0.75294101238250732,
        0.75294101238250732,
        0.75294101238250732,
        1
      ],
      "min": [
        0.75294101238250732,
        0.75294101238250732,
        0.75294101238250732,
        1
      ],
      "type": "VEC4"
    },
    {
      "bufferView": 0,
      "byteOffset": 2104140,
      "componentType": 5125,
      "count": 1980,
      "max": [
        625
      ],
      "min": [
        0
      ],
      "type": "SCALAR"
    }
  ],
  "asset": {
    "generator": "Sketchfab (OSG glTF plugin)",
    "version": "2.0"
  },
  "bufferViews": [
    {
      "buffer": 0,
      "byteLength": 2112060,
      "byteOffset": 0,
      "name": "floatBufferViews",
      "target": 34963
    },
    {
      "buffer": 0,
      "byteLength": 750080,
      "byteOffset": 2112060,
      "byteStride": 8,
      "name": "floatBufferViews",
      "target": 34962
    },
    {
      "buffer": 0,
      "byteLength": 2265264,
      "byteOffset": 2862140,
      "byteStride": 12,
      "name": "floatBufferViews",
      "target": 34962
    },
    {
      "buffer": 0,
      "byteLength": 3020352,
      "byteOffset": 5127404,
      "byteStride": 16,
      "name": "floatBufferViews",
      "target": 34962
    }
  ],
  "buffers": [
    {
      "byteLength": 8147756,
      "uri": "scene.bin"
    }
  ],
  "images": [
    {
      "uri": "textures/material_5_baseColor.jpeg"
    },
    {
      "uri": "textures/material_0_baseColor.jpeg"
    },
    {
      "uri": "textures/material_1_baseColor.jpeg"
    },
    {
      "uri": "textures/material_2_baseColor.jpeg"
    },
    {
      "uri": "textures/material_4_baseColor.jpeg"
    },
    {
      "uri": "textures/material_3_baseColor.jpeg"
    }
  ],
  "materials": [
    {
      "doubleSided": true,
      "emissiveFactor": [
        0,
        0,
        0
      ],
      "name": "material_0",
      "pbrMetallicRoughness": {
        "baseColorFactor": [
          1,
          1,
          1,
          1
        ],
        "baseColorTexture": {
          "index": 1,
          "texCoord": 0
        }
      }
    },
    {
      "doubleSided": true,
      "emissiveFactor": [
        0,
        0,
        0
      ],
      "name": "material_1",
      "pbrMetallicRoughness": {
        "baseColorFactor": [
          1,
          1,
          1,
          1
        ],
        "baseColorTexture": {
          "index": 2,
          "texCoord": 0
        }
      }
    },
    {
      "doubleSided": true,
      "emissiveFactor": [
        0,
        0,
        0
      ],
      "name": "material_2",
      "pbrMetallicRoughness": {
        "baseColorFactor": [
          1,
          1,
          1,
          1
        ],
        "baseColorTexture": {
          "index": 3,
          "texCoord": 0
        }
      }
    },
    {
      "doubleSided": true,
      "emissiveFactor": [
        0,
        0,
        0
      ],
      "name": "material_3",
      "pbrMetallicRoughness": {
        "baseColorFactor": [
          1,
          1,
          1,
          1
        ],
        "baseColorTexture": {
          "index": 5,
          "texCoord": 0
        }
      }
    },
    {
      "doubleSided": true,
      "emissiveFactor": [
        0,
        0,
        0
      ],
      "name": "material_4",
      "pbrMetallicRoughness": {
        "baseColorFactor": [
          1,
          1,
          1,
          1
        ],
        "baseColorTexture": {
          "index": 4,
          "texCoord": 0
        }
      }
    },
    {
      "doubleSided": true,
      "emissiveFactor": [
        0,
        0,
        0
      ],
      "name": "material_5",
      "pbrMetallicRoughness": {
        "baseColorFactor": [
          1,
          1,
          1,
          1
        ],
        "baseColorTexture": {
          "index": 0,
          "texCoord": 0
        }
      }
    },
    {
      "doubleSided": true,
      "emissiveFactor": [
        0,
        0,
        0
      ],
      "name": "material_6",
      "pbrMetallicRoughness": {
        "baseColorFactor": [
          0.50196099999999999,
          0.50196099999999999,
          0.50196099999999999,
          1
        ]
      }
    }
  ],
  "meshes": [
    {
      "primitives": [
        {
          "attributes": {
            "COLOR_0": 3,
            "NORMAL": 1,
            "POSITION": 0,
            "TANGENT": 2,
            "TEXCOORD_0": 4
          },
          "indices": 5,
          "material": 0,
          "mode": 4
        }
      ]
    },
    {
      "primitives": [
        {
          "attributes": {
            "COLOR_0": 9,
            "NORMAL": 7,
            "POSITION": 6,
            "TANGENT": 8,
            "TEXCOORD_0": 10
          },
          "indices": 11,
          "material": 1,
          "mode": 4
        }
      ]
    },
    {
      "primitives": [
        {
          "attributes": {
            "COLOR_0": 15,
            "NORMAL": 13,
            "POSITION": 12,
            "TANGENT": 14,
            "TEXCOORD_0": 16
          },
          "indices": 17,
          "material": 2,
          "mode": 4
        }
      ]
    },
    {
      "primitives": [
        {
          "attributes": {
            "COLOR_0": 21,
            "NORMAL": 19,
            "POSITION": 18,
            "TANGENT": 20,
            "TEXCOORD_0": 22
          },
          "indices": 23,
          "material": 3,
          "mode": 4
        }
      ]
    },
    {
      "primitives": [
        {
          "attributes": {
            "COLOR_0": 27,
            "NORMAL": 25,
            "POSITION": 24,
            "TANGENT": 26,
            "TEXCOORD_0": 28
          },
          "indices": 29,
          "material": 4,
          "mode": 4
        }
      ]
    },
    {
      "primitives": [
        {
          "attributes": {
            "COLOR_0": 33,
            "NORMAL": 31,
            "POSITION": 30,
            "TANGENT": 32,
            "TEXCOORD_0": 34
          },
          "indices": 35,
          "material": 5,
          "mode": 4
        }
      ]
    },
    {
      "primitives": [
        {
          "attributes": {
            "COLOR_0": 39,
            "NORMAL": 37,
            "POSITION": 36,
            "TANGENT": 38
          },
          "indices": 40,
          "material": 6,
          "mode": 4
        }
      ]
    }
  ],
  "nodes": [
    {
      "children": [
        1
      ],
      "name": "RootNode (gltf orientation matrix)",
      "rotation": [
        -0.70710678118654746,
        -0,
        -0,
        0.70710678118654757
      ]
    },
    {
      "children": [
        2
      ],
      "matrix": [
        -0.37756261229515076,
        0.64438462257385254,
        0.66499245166778564,
        0,
        0.24713894724845886,
        0.76222103834152222,
        -0.5982820987701416,
        0,
        -0.89239501953125,
        -0.061543401330709457,
        -0.4470386803150177,
        0,
        2.0014770030975342,
        -1.1837176084518433,
        -1.9364258050918579,
        1
      ],
      "name": "RootNode (model correction matrix)"
    },
    {
      "children": [
        3
      ],
      "matrix": [
        1,
        0,
        0,
        0,
        0,
        1,
        0,
        0,
        0,
        0,
        1,
        0,
        -4.5737929344177246,
        -8.7716569900512695,
        -8.2882852554321289,
        1
      ],
      "name": "mesh.obj.cleaner.gles"
    },
    {
      "children": [
        4
      ],
      "name": ""
    },
    {
      "children": [
        5,
        6,
        7,
        8,
        9,
        10,
        11
      ],
      "name": "Geode"
    },
    {
      "mesh": 0,
      "name": ""
    },
    {
      "mesh": 1,
      "name": ""
    },
    {
      "mesh": 2,
      "name": ""
    },
    {
      "mesh": 3,
      "name": ""
    },
    {
      "mesh": 4,
      "name": ""
    },
    {
      "mesh": 5,
      "name": ""
    },
    {
      "mesh": 6,
      "name": ""
    }
  ],
  "samplers": [
    {
      "magFilter": 9729,
      "minFilter": 9987,
      "wrapS": 10497,
      "wrapT": 10497
    }
  ],
  "scene": 0,
  "scenes": [
    {
      "name": "OSG_Scene",
      "nodes": [
        0
      ]
    }
  ],
  "textures": [
    {
      "sampler": 0,
      "source": 0
    },
    {
      "sampler": 0,
      "source": 1
    },
    {
      "sampler": 0,
      "source": 2
    },
    {
      "sampler": 0,
      "source": 3
    },
    {
      "sampler": 0,
      "source": 4
    },
    {
      "sampler": 0,
      "source": 5
    }
  ]
}

