{
  "accessors": [
    {
      "bufferView": 2,
      "componentType": 5126,
      "count": 3455,
      "max": [
        161.26390075683594,
        184.62060546875,
        779.99542236328125
      ],
      "min": [
        -161.33430480957031,
        -185.74130249023438,
        -2.9851000308990479
      ],
      "type": "VEC3"
    },
    {
      "bufferView": 2,
      "byteOffset": 41460,
      "componentType": 5126,
      "count": 3455,
      "max": [
        0.99994635581970215,
        0.99998903274536133,
        0.99994063377380371
      ],
      "min": [
        -0.99994635581970215,
        -0.99964815378189087,
        -0.99998593330383301
      ],
      "type": "VEC3"
    },
    {
      "bufferView": 3,
      "componentType": 5126,
      "count": 3455,
      "max": [
        0.99999672174453735,
        0.99999815225601196,
        0.99994885921478271,
        1
      ],
      "min": [
        -1,
        -0.99994385242462158,
        -0.99994707107543945,
        -1
      ],
      "type": "VEC4"
    },
    {
      "bufferView": 1,
      "componentType": 5126,
      "count": 3455,
      "max": [
        0.99570000171661377,
        0.99620002508163452
      ],
      "min": [
        0.0074999998323619366,
        0.0099999997764825821
      ],
      "type": "VEC2"
    },
    {
      "bufferView": 0,
      "componentType": 5125,
      "count": 9387,
      "max": [
        3454
      ],
      "min": [
        0
      ],
      "type": "SCALAR"
    },
    {
      "bufferView": 2,
      "byteOffset": 82920,
      "componentType": 5126,
      "count": 2673,
      "max": [
        161.26390075683594,
        184.62060546875,
        779.18328857421875
      ],
      "min": [
        -161.33430480957031,
        -185.74130249023438,
        -2.9851000308990479
      ],
      "type": "VEC3"
    },
    {
      "bufferView": 2,
      "byteOffset": 114996,
      "componentType": 5126,
      "count": 2673,
      "max": [
        0.99999594688415527,
        0.99999690055847168,
        0.99997842311859131
      ],
      "min": [
        -0.99981504678726196,
        -0.99999892711639404,
        -0.99991607666015625
      ],
      "type": "VEC3"
    },
    {
      "bufferView": 3,
      "byteOffset": 55280,
      "componentType": 5126,
      "count": 2673,
      "max": [
        1,
        0.99999791383743286,
        0.99999028444290161,
        1
      ],
      "min": [
        -1,
        -0.99998360872268677,
        -0.99999767541885376,
        -1
      ],
      "type": "VEC4"
    },
    {
      "bufferView": 1,
      "byteOffset": 27640,
      "componentType": 5126,
      "count": 2673,
      "max": [
        0.99500000476837158,
        0.9944000244140625
      ],
      "min": [
        0.0057000000961124897,
        0.0096000004559755325
      ],
      "type": "VEC2"
    },
    {
      "bufferView": 0,
      "byteOffset": 37548,
      "componentType": 5125,
      "count": 8886,
      "max": [
        2672
      ],
      "min": [
        0
      ],
      "type": "SCALAR"
    }
  ],
  "asset": {
    "generator": "Sketchfab (OSG glTF plugin)",
    "version": "2.0"
  },
  "bufferViews": [
    {
      "buffer": 0,
      "byteLength": 73092,
      "byteOffset": 0,
      "name": "floatBufferViews",
      "target": 34963
    },
    {
      "buffer": 0,
      "byteLength": 49024,
      "byteOffset": 73092,
      "byteStride": 8,
      "name": "floatBufferViews",
      "target": 34962
    },
    {
      "buffer": 0,
      "byteLength": 147072,
      "byteOffset": 122116,
      "byteStride": 12,
      "name": "floatBufferViews",
      "target": 34962
    },
    {
      "buffer": 0,
      "byteLength": 98048,
      "byteOffset": 269188,
      "byteStride": 16,
      "name": "floatBufferViews",
      "target": 34962
    }
  ],
  "buffers": [
    {
      "byteLength": 367236,
      "uri": "scene.bin"
    }
  ],
  "extensionsRequired": [
    "KHR_materials_pbrSpecularGlossiness"
  ],
  "extensionsUsed": [
    "KHR_materials_pbrSpecularGlossiness"
  ],
  "images": [
    {
      "uri": "textures/default_specularGlossiness.png"
    },
    {
      "uri": "textures/default_emissive.png"
    },
    {
      "uri": "textures/default_normal.png"
    },
    {
      "uri": "textures/default_diffuse.png"
    }
  ],
  "materials": [
    {
      "doubleSided": true,
      "emissiveFactor": [
        0,
        0,
        0
      ],
      "emissiveTexture": {
        "index": 1,
        "texCoord": 0
      },
      "extensions": {
        "KHR_materials_pbrSpecularGlossiness": {
          "diffuseFactor": [
            1,
            1,
            1,
            1
          ],
          "diffuseTexture": {
            "index": 3,
            "texCoord": 0
          },
          "glossinessFactor": 0,
          "specularFactor": [
            0.83999999999999997,
            0.83999999999999997,
            0.83999999999999997
          ],
          "specularGlossinessTexture": {
            "index": 0,
            "texCoord": 0
          }
        }
      },
      "name": "default",
      "normalTexture": {
        "index": 2,
        "scale": 1,
        "texCoord": 0
      }
    }
  ],
  "meshes": [
    {
      "primitives": [
        {
          "attributes": {
            "NORMAL": 1,
            "POSITION": 0,
            "TANGENT": 2,
            "TEXCOORD_0": 3
          },
          "indices": 4,
          "material": 0,
          "mode": 4
        }
      ]
    },
    {
      "primitives": [
        {
          "attributes": {
            "NORMAL": 6,
            "POSITION": 5,
            "TANGENT": 7,
            "TEXCOORD_0": 8
          },
          "indices": 9,
          "material": 0,
          "mode": 4
        }
      ]
    }
  ],
  "nodes": [
    {
      "children": [
        1
      ],
      "name": "RootNode (gltf orientation matrix)",
      "rotation": [
        -0.70710678118654746,
        -0,
        -0,
        0.70710678118654757
      ]
    },
    {
      "children": [
        2
      ],
      "name": "RootNode (model correction matrix)"
    },
    {
      "children": [
        5
      ],
      "name": "alliance_statue.obj.cleaner"
    },
    {
      "mesh": 0,
      "name": ""
    },
    {
      "mesh": 1,
      "name": ""
    },
    {
      "children": [
        3,
        4
      ],
      "name": "Geode"
    }
  ],
  "samplers": [
    {
      "magFilter": 9729,
      "minFilter": 9987,
      "wrapS": 10497,
      "wrapT": 10497
    }
  ],
  "scene": 0,
  "scenes": [
    {
      "name": "OSG_Scene",
      "nodes": [
        0
      ]
    }
  ],
  "textures": [
    {
      "sampler": 0,
      "source": 0
    },
    {
      "sampler": 0,
      "source": 1
    },
    {
      "sampler": 0,
      "source": 2
    },
    {
      "sampler": 0,
      "source": 3
    }
  ]
}

