{
  "accessors": [
    {
      "bufferView": 2,
      "componentType": 5126,
      "count": 11996,
      "max": [
        -10.121410369873047,
        8.0924816131591797,
        34.456802368164062
      ],
      "min": [
        -23.248313903808594,
        -9.7365322113037109,
        33.360610961914062
      ],
      "type": "VEC3"
    },
    {
      "bufferView": 2,
      "byteOffset": 143952,
      "componentType": 5126,
      "count": 11996,
      "max": [
        0.99983352422714233,
        0.99988079071044922,
        1
      ],
      "min": [
        -0.99994003772735596,
        -0.99996042251586914,
        -1
      ],
      "type": "VEC3"
    },
    {
      "bufferView": 3,
      "componentType": 5126,
      "count": 11996,
      "max": [
        0.9999886155128479,
        0.99997556209564209,
        1,
        1
      ],
      "min": [
        -0.99998223781585693,
        -0.99995994567871094,
        -0.99971485137939453,
        -1
      ],
      "type": "VEC4"
    },
    {
      "bufferView": 1,
      "componentType": 5126,
      "count": 11996,
      "max": [
        0.99540400505065918,
        0.99800002574920654
      ],
      "min": [
        0.0020000000949949026,
        0.01070099975913763
      ],
      "type": "VEC2"
    },
    {
      "bufferView": 0,
      "componentType": 5125,
      "count": 57102,
      "max": [
        11995
      ],
      "min": [
        0
      ],
      "type": "SCALAR"
    },
    {
      "bufferView": 2,
      "byteOffset": 287904,
      "componentType": 5126,
      "count": 11996,
      "max": [
        9.2537546157836914,
        23.936410903930664,
        34.456802368164062
      ],
      "min": [
        -8.3770437240600586,
        11.095560073852539,
        33.360610961914062
      ],
      "type": "VEC3"
    },
    {
      "bufferView": 2,
      "byteOffset": 431856,
      "componentType": 5126,
      "count": 11996,
      "max": [
        0.99996072053909302,
        0.99999380111694336,
        1
      ],
      "min": [
        -0.99990051984786987,
        -0.99999165534973145,
        -1
      ],
      "type": "VEC3"
    },
    {
      "bufferView": 3,
      "byteOffset": 191936,
      "componentType": 5126,
      "count": 11996,
      "max": [
        0.99996960163116455,
        0.99999767541885376,
        1,
        1
      ],
      "min": [
        -0.99983590841293335,
        -0.99954968690872192,
        -0.99971401691436768,
        -1
      ],
      "type": "VEC4"
    },
    {
      "bufferView": 1,
      "byteOffset": 95968,
      "componentType": 5126,
      "count": 11996,
      "max": [
        0.99540400505065918,
        0.99800002574920654
      ],
      "min": [
        0.0020000000949949026,
        0.01070099975913763
      ],
      "type": "VEC2"
    },
    {
      "bufferView": 0,
      "byteOffset": 228408,
      "componentType": 5125,
      "count": 57108,
      "max": [
        11995
      ],
      "min": [
        0
      ],
      "type": "SCALAR"
    },
    {
      "bufferView": 2,
      "byteOffset": 575808,
      "componentType": 5126,
      "count": 11995,
      "max": [
        8.6802291870117188,
        -10.927923202514648,
        34.456802368164062
      ],
      "min": [
        -8.7860107421875,
        -23.534017562866211,
        33.360610961914062
      ],
      "type": "VEC3"
    },
    {
      "bufferView": 2,
      "byteOffset": 719748,
      "componentType": 5126,
      "count": 11995,
      "max": [
        0.99977570772171021,
        0.99997669458389282,
        1
      ],
      "min": [
        -0.99999237060546875,
        -0.99987655878067017,
        -1
      ],
      "type": "VEC3"
    },
    {
      "bufferView": 3,
      "byteOffset": 383872,
      "componentType": 5126,
      "count": 11995,
      "max": [
        0.99998307228088379,
        0.99987024068832397,
        1,
        1
      ],
      "min": [
        -0.99988216161727905,
        -0.99997115135192871,
        -0.99971431493759155,
        -1
      ],
      "type": "VEC4"
    },
    {
      "bufferView": 1,
      "byteOffset": 191936,
      "componentType": 5126,
      "count": 11995,
      "max": [
        0.99540400505065918,
        0.99800002574920654
      ],
      "min": [
        0.0020000000949949026,
        0.01070099975913763
      ],
      "type": "VEC2"
    },
    {
      "bufferView": 0,
      "byteOffset": 456840,
      "componentType": 5125,
      "count": 57102,
      "max": [
        11994
      ],
      "min": [
        0
      ],
      "type": "SCALAR"
    },
    {
      "bufferView": 2,
      "byteOffset": 863688,
      "componentType": 5126,
      "count": 11995,
      "max": [
        23.366985321044922,
        8.4325580596923828,
        34.456802368164062
      ],
      "min": [
        11.024467468261719,
        -8.8469676971435547,
        33.360610961914062
      ],
      "type": "VEC3"
    },
    {
      "bufferView": 2,
      "byteOffset": 1007628,
      "componentType": 5126,
      "count": 11995,
      "max": [
        0.99980038404464722,
        0.99993675947189331,
        1
      ],
      "min": [
        -0.99992018938064575,
        -0.99997913837432861,
        -1
      ],
      "type": "VEC3"
    },
    {
      "bufferView": 3,
      "byteOffset": 575792,
      "componentType": 5126,
      "count": 11995,
      "max": [
        0.99999982118606567,
        1,
        1,
        1
      ],
      "min": [
        -0.99999946355819702,
        -1,
        -0.99971330165863037,
        -1
      ],
      "type": "VEC4"
    },
    {
      "bufferView": 1,
      "byteOffset": 287896,
      "componentType": 5126,
      "count": 11995,
      "max": [
        0.99540400505065918,
        0.99800002574920654
      ],
      "min": [
        0.0020000000949949026,
        0.01070099975913763
      ],
      "type": "VEC2"
    },
    {
      "bufferView": 0,
      "byteOffset": 685248,
      "componentType": 5125,
      "count": 57108,
      "max": [
        11994
      ],
      "min": [
        0
      ],
      "type": "SCALAR"
    },
    {
      "bufferView": 2,
      "byteOffset": 1151568,
      "componentType": 5126,
      "count": 2312,
      "max": [
        22.067169189453125,
        3.8019618988037109,
        34.375251770019531
      ],
      "min": [
        12.245437622070312,
        -6.019768238067627,
        33.528091430664062
      ],
      "type": "VEC3"
    },
    {
      "bufferView": 2,
      "byteOffset": 1179312,
      "componentType": 5126,
      "count": 2312,
      "max": [
        0.99816882610321045,
        0.9981684684753418,
        1
      ],
      "min": [
        -0.99816936254501343,
        -0.9981691837310791,
        -0.99999994039535522
      ],
      "type": "VEC3"
    },
    {
      "bufferView": 3,
      "byteOffset": 767712,
      "componentType": 5126,
      "count": 2312,
      "max": [
        1,
        0.49992340803146362,
        0.99816906452178955,
        1
      ],
      "min": [
        -0.060484603047370911,
        -0.53014940023422241,
        -0.99816960096359253,
        -1
      ],
      "type": "VEC4"
    },
    {
      "bufferView": 1,
      "byteOffset": 383856,
      "componentType": 5126,
      "count": 2312,
      "max": [
        1.0009729862213135,
        1.0009729862213135
      ],
      "min": [
        -0.00097300001652911305,
        -0.00097300001652911305
      ],
      "type": "VEC2"
    },
    {
      "bufferView": 0,
      "byteOffset": 913680,
      "componentType": 5125,
      "count": 13830,
      "max": [
        2311
      ],
      "min": [
        0
      ],
      "type": "SCALAR"
    },
    {
      "bufferView": 2,
      "byteOffset": 1207056,
      "componentType": 5126,
      "count": 65532,
      "max": [
        49.571342468261719,
        50.78033447265625,
        39.941059112548828
      ],
      "min": [
        -49.954631805419922,
        -27.816446304321289,
        3.0000001061125658e-06
      ],
      "type": "VEC3"
    },
    {
      "bufferView": 2,
      "byteOffset": 1993440,
      "componentType": 5126,
      "count": 65532,
      "max": [
        1,
        1,
        1
      ],
      "min": [
        -1,
        -1,
        -1
      ],
      "type": "VEC3"
    },
    {
      "bufferView": 3,
      "byteOffset": 804704,
      "componentType": 5126,
      "count": 65532,
      "max": [
        1,
        1,
        1,
        1
      ],
      "min": [
        -1,
        -1,
        -1,
        -1
      ],
      "type": "VEC4"
    },
    {
      "bufferView": 1,
      "byteOffset": 402352,
      "componentType": 5126,
      "count": 65532,
      "max": [
        0.99800002574920654,
        0.99771302938461304
      ],
      "min": [
        0.0020000000949949026,
        0.0020000000949949026
      ],
      "type": "VEC2"
    },
    {
      "bufferView": 0,
      "byteOffset": 969000,
      "componentType": 5125,
      "count": 303342,
      "max": [
        65531
      ],
      "min": [
        0
      ],
      "type": "SCALAR"
    },
    {
      "bufferView": 2,
      "byteOffset": 2779824,
      "componentType": 5126,
      "count": 62650,
      "max": [
        12.924638748168945,
        50.585945129394531,
        39.941055297851562
      ],
      "min": [
        -14.732379913330078,
        -50.3685302734375,
        3.0000001061125658e-06
      ],
      "type": "VEC3"
    },
    {
      "bufferView": 2,
      "byteOffset": 3531624,
      "componentType": 5126,
      "count": 62650,
      "max": [
        0.99983876943588257,
        0.99992752075195312,
        1
      ],
      "min": [
        -0.99987906217575073,
        -0.99987936019897461,
        -1
      ],
      "type": "VEC3"
    },
    {
      "bufferView": 3,
      "byteOffset": 1853216,
      "componentType": 5126,
      "count": 62650,
      "max": [
        1,
        1,
        1,
        1
      ],
      "min": [
        -1,
        -0.99999964237213135,
        -1,
        -1
      ],
      "type": "VEC4"
    },
    {
      "bufferView": 1,
      "byteOffset": 926608,
      "componentType": 5126,
      "count": 62650,
      "max": [
        0.99639397859573364,
        0.99771302938461304
      ],
      "min": [
        0.0020000000949949026,
        0.0020000000949949026
      ],
      "type": "VEC2"
    },
    {
      "bufferView": 0,
      "byteOffset": 2182368,
      "componentType": 5125,
      "count": 293286,
      "max": [
        62649
      ],
      "min": [
        0
      ],
      "type": "SCALAR"
    }
  ],
  "asset": {
    "generator": "Sketchfab (OSG glTF plugin)",
    "version": "2.0"
  },
  "bufferViews": [
    {
      "buffer": 0,
      "byteLength": 3355512,
      "byteOffset": 0,
      "name": "floatBufferViews",
      "target": 34963
    },
    {
      "buffer": 0,
      "byteLength": 1427808,
      "byteOffset": 3355512,
      "byteStride": 8,
      "name": "floatBufferViews",
      "target": 34962
    },
    {
      "buffer": 0,
      "byteLength": 4283424,
      "byteOffset": 4783320,
      "byteStride": 12,
      "name": "floatBufferViews",
      "target": 34962
    },
    {
      "buffer": 0,
      "byteLength": 2855616,
      "byteOffset": 9066744,
      "byteStride": 16,
      "name": "floatBufferViews",
      "target": 34962
    }
  ],
  "buffers": [
    {
      "byteLength": 11922360,
      "uri": "scene.bin"
    }
  ],
  "extensionsRequired": [
    "KHR_materials_pbrSpecularGlossiness"
  ],
  "extensionsUsed": [
    "KHR_materials_pbrSpecularGlossiness"
  ],
  "images": [
    {
      "uri": "textures/PIatto01_occlusion.jpeg"
    },
    {
      "uri": "textures/PIatto01_diffuse.jpeg"
    },
    {
      "uri": "textures/PIatto01_specularGlossiness.png"
    },
    {
      "uri": "textures/TVUnik_Baked01_emissive.jpeg"
    },
    {
      "uri": "textures/TVUnik_Baked01_occlusion.jpeg"
    },
    {
      "uri": "textures/TVUnik_Baked01_diffuse.jpeg"
    },
    {
      "uri": "textures/Material__167_emissive.jpeg"
    },
    {
      "uri": "textures/Material__167_occlusion.jpeg"
    },
    {
      "uri": "textures/Material__167_diffuse.jpeg"
    },
    {
      "uri": "textures/Material__167_specularGlossiness.png"
    },
    {
      "uri": "textures/Material__167_normal.png"
    }
  ],
  "materials": [
    {
      "doubleSided": true,
      "emissiveFactor": [
        0,
        0,
        0
      ],
      "emissiveTexture": {
        "index": 6,
        "texCoord": 0
      },
      "extensions": {
        "KHR_materials_pbrSpecularGlossiness": {
          "diffuseFactor": [
            1,
            1,
            1,
            1
          ],
          "diffuseTexture": {
            "index": 8,
            "texCoord": 0
          },
          "glossinessFactor": 1,
          "specularFactor": [
            1,
            1,
            1
          ],
          "specularGlossinessTexture": {
            "index": 9,
            "texCoord": 0
          }
        }
      },
      "name": "Material__167",
      "normalTexture": {
        "index": 10,
        "scale": 1,
        "texCoord": 0
      },
      "occlusionTexture": {
        "index": 7,
        "strength": 1,
        "texCoord": 0
      }
    },
    {
      "doubleSided": true,
      "emissiveFactor": [
        0,
        0,
        0
      ],
      "extensions": {
        "KHR_materials_pbrSpecularGlossiness": {
          "diffuseFactor": [
            1,
            1,
            1,
            1
          ],
          "diffuseTexture": {
            "index": 1,
            "texCoord": 0
          },
          "glossinessFactor": 1,
          "specularFactor": [
            1,
            1,
            1
          ],
          "specularGlossinessTexture": {
            "index": 2,
            "texCoord": 0
          }
        }
      },
      "name": "PIatto01",
      "occlusionTexture": {
        "index": 0,
        "strength": 1,
        "texCoord": 0
      }
    },
    {
      "doubleSided": true,
      "emissiveFactor": [
        0,
        0,
        0
      ],
      "emissiveTexture": {
        "index": 3,
        "texCoord": 0
      },
      "extensions": {
        "KHR_materials_pbrSpecularGlossiness": {
          "diffuseFactor": [
            1,
            1,
            1,
            1
          ],
          "diffuseTexture": {
            "index": 5,
            "texCoord": 0
          },
          "glossinessFactor": 0.1114710366,
          "specularFactor": [
            0.026105182899999999,
            0.026105182899999999,
            0.026105182899999999
          ]
        }
      },
      "name": "TVUnik_Baked01",
      "occlusionTexture": {
        "index": 4,
        "strength": 1,
        "texCoord": 0
      }
    }
  ],
  "meshes": [
    {
      "primitives": [
        {
          "attributes": {
            "NORMAL": 1,
            "POSITION": 0,
            "TANGENT": 2,
            "TEXCOORD_0": 3
          },
          "indices": 4,
          "material": 0,
          "mode": 4
        }
      ]
    },
    {
      "primitives": [
        {
          "attributes": {
            "NORMAL": 6,
            "POSITION": 5,
            "TANGENT": 7,
            "TEXCOORD_0": 8
          },
          "indices": 9,
          "material": 0,
          "mode": 4
        }
      ]
    },
    {
      "primitives": [
        {
          "attributes": {
            "NORMAL": 11,
            "POSITION": 10,
            "TANGENT": 12,
            "TEXCOORD_0": 13
          },
          "indices": 14,
          "material": 0,
          "mode": 4
        }
      ]
    },
    {
      "primitives": [
        {
          "attributes": {
            "NORMAL": 16,
            "POSITION": 15,
            "TANGENT": 17,
            "TEXCOORD_0": 18
          },
          "indices": 19,
          "material": 0,
          "mode": 4
        }
      ]
    },
    {
      "primitives": [
        {
          "attributes": {
            "NORMAL": 21,
            "POSITION": 20,
            "TANGENT": 22,
            "TEXCOORD_0": 23
          },
          "indices": 24,
          "material": 1,
          "mode": 4
        }
      ]
    },
    {
      "primitives": [
        {
          "attributes": {
            "NORMAL": 26,
            "POSITION": 25,
            "TANGENT": 27,
            "TEXCOORD_0": 28
          },
          "indices": 29,
          "material": 2,
          "mode": 4
        }
      ]
    },
    {
      "primitives": [
        {
          "attributes": {
            "NORMAL": 31,
            "POSITION": 30,
            "TANGENT": 32,
            "TEXCOORD_0": 33
          },
          "indices": 34,
          "material": 2,
          "mode": 4
        }
      ]
    }
  ],
  "nodes": [
    {
      "children": [
        1
      ],
      "name": "RootNode (gltf orientation matrix)",
      "rotation": [
        -0.70710678118654746,
        -0,
        -0,
        0.70710678118654757
      ]
    },
    {
      "children": [
        2
      ],
      "name": "RootNode (model correction matrix)"
    },
    {
      "children": [
        3
      ],
      "name": "Cinese Table A1.obj.cleaner.materialmerger.gles"
    },
    {
      "children": [
        4,
        5,
        6,
        7,
        8,
        9,
        10
      ],
      "name": "Geode"
    },
    {
      "mesh": 0,
      "name": ""
    },
    {
      "mesh": 1,
      "name": ""
    },
    {
      "mesh": 2,
      "name": ""
    },
    {
      "mesh": 3,
      "name": ""
    },
    {
      "mesh": 4,
      "name": ""
    },
    {
      "mesh": 5,
      "name": ""
    },
    {
      "mesh": 6,
      "name": ""
    }
  ],
  "samplers": [
    {
      "magFilter": 9729,
      "minFilter": 9987,
      "wrapS": 10497,
      "wrapT": 10497
    }
  ],
  "scene": 0,
  "scenes": [
    {
      "name": "OSG_Scene",
      "nodes": [
        0
      ]
    }
  ],
  "textures": [
    {
      "sampler": 0,
      "source": 0
    },
    {
      "sampler": 0,
      "source": 1
    },
    {
      "sampler": 0,
      "source": 2
    },
    {
      "sampler": 0,
      "source": 3
    },
    {
      "sampler": 0,
      "source": 4
    },
    {
      "sampler": 0,
      "source": 5
    },
    {
      "sampler": 0,
      "source": 6
    },
    {
      "sampler": 0,
      "source": 7
    },
    {
      "sampler": 0,
      "source": 8
    },
    {
      "sampler": 0,
      "source": 9
    },
    {
      "sampler": 0,
      "source": 10
    }
  ]
}

