{
  "accessors": [
    {
      "bufferView": 1,
      "componentType": 5126,
      "count": 682,
      "max": [
        456.00003051757812,
        187.34384155273438,
        1789
      ],
      "min": [
        -456.00003051757812,
        -367.00003051757812,
        0
      ],
      "type": "VEC3"
    },
    {
      "bufferView": 1,
      "byteOffset": 8184,
      "componentType": 5126,
      "count": 682,
      "max": [
        1,
        1,
        1
      ],
      "min": [
        -1,
        -1,
        -1
      ],
      "type": "VEC3"
    },
    {
      "bufferView": 2,
      "componentType": 5126,
      "count": 682,
      "max": [
        1,
        1,
        2.247803240607027e-05,
        1
      ],
      "min": [
        -1,
        -1,
        -1.5727404388599098e-05,
        -1
      ],
      "type": "VEC4"
    },
    {
      "bufferView": 0,
      "componentType": 5125,
      "count": 1962,
      "max": [
        681
      ],
      "min": [
        0
      ],
      "type": "SCALAR"
    },
    {
      "bufferView": 1,
      "byteOffset": 16368,
      "componentType": 5126,
      "count": 236,
      "max": [
        2437.28857421875,
        369.2908935546875,
        876.61541748046875
      ],
      "min": [
        1988.73095703125,
        226.17999267578125,
        -4.53076171875
      ],
      "type": "VEC3"
    },
    {
      "bufferView": 1,
      "byteOffset": 19200,
      "componentType": 5126,
      "count": 236,
      "max": [
        1,
        1,
        1
      ],
      "min": [
        -1,
        -1,
        -1
      ],
      "type": "VEC3"
    },
    {
      "bufferView": 2,
      "byteOffset": 10912,
      "componentType": 5126,
      "count": 236,
      "max": [
        1,
        1,
        1,
        1
      ],
      "min": [
        -1,
        -1,
        -1,
        -1
      ],
      "type": "VEC4"
    },
    {
      "bufferView": 0,
      "byteOffset": 7848,
      "componentType": 5125,
      "count": 570,
      "max": [
        235
      ],
      "min": [
        0
      ],
      "type": "SCALAR"
    },
    {
      "bufferView": 1,
      "byteOffset": 22032,
      "componentType": 5126,
      "count": 222,
      "max": [
        1644.380615234375,
        372.13446044921875,
        1789
      ],
      "min": [
        1194.6319580078125,
        226.17999267578125,
        893.12652587890625
      ],
      "type": "VEC3"
    },
    {
      "bufferView": 1,
      "byteOffset": 24696,
      "componentType": 5126,
      "count": 222,
      "max": [
        1,
        1,
        1
      ],
      "min": [
        -1,
        -1,
        -1
      ],
      "type": "VEC3"
    },
    {
      "bufferView": 2,
      "byteOffset": 14688,
      "componentType": 5126,
      "count": 222,
      "max": [
        1,
        1,
        5.5451769185310695e-06,
        1
      ],
      "min": [
        -1,
        -3.5437224710221926e-08,
        -5.5635046010138467e-06,
        -1
      ],
      "type": "VEC4"
    },
    {
      "bufferView": 0,
      "byteOffset": 10128,
      "componentType": 5125,
      "count": 516,
      "max": [
        221
      ],
      "min": [
        0
      ],
      "type": "SCALAR"
    },
    {
      "bufferView": 1,
      "byteOffset": 27360,
      "componentType": 5126,
      "count": 220,
      "max": [
        1322.932373046875,
        369.2908935546875,
        883.09466552734375
      ],
      "min": [
        873.18359375,
        226.17999267578125,
        1.234130859375
      ],
      "type": "VEC3"
    },
    {
      "bufferView": 1,
      "byteOffset": 30000,
      "componentType": 5126,
      "count": 220,
      "max": [
        1,
        1,
        1
      ],
      "min": [
        -1,
        -1,
        -1
      ],
      "type": "VEC3"
    },
    {
      "bufferView": 2,
      "byteOffset": 18240,
      "componentType": 5126,
      "count": 220,
      "max": [
        1,
        1,
        1,
        1
      ],
      "min": [
        -1,
        -0.97493451833724976,
        -1,
        -1
      ],
      "type": "VEC4"
    },
    {
      "bufferView": 0,
      "byteOffset": 12192,
      "componentType": 5125,
      "count": 513,
      "max": [
        219
      ],
      "min": [
        0
      ],
      "type": "SCALAR"
    },
    {
      "bufferView": 1,
      "byteOffset": 32640,
      "componentType": 5126,
      "count": 398,
      "max": [
        2437.28857421875,
        369.2908935546875,
        876.61541748046875
      ],
      "min": [
        1988.73095703125,
        226.17999267578125,
        -4.53076171875
      ],
      "type": "VEC3"
    },
    {
      "bufferView": 1,
      "byteOffset": 37416,
      "componentType": 5126,
      "count": 398,
      "max": [
        1,
        1,
        1
      ],
      "min": [
        -1,
        -1,
        -1
      ],
      "type": "VEC3"
    },
    {
      "bufferView": 2,
      "byteOffset": 21760,
      "componentType": 5126,
      "count": 398,
      "max": [
        1,
        1,
        1,
        1
      ],
      "min": [
        -1,
        -1,
        -1,
        -1
      ],
      "type": "VEC4"
    },
    {
      "bufferView": 0,
      "byteOffset": 14244,
      "componentType": 5125,
      "count": 1122,
      "max": [
        397
      ],
      "min": [
        0
      ],
      "type": "SCALAR"
    },
    {
      "bufferView": 3,
      "componentType": 5126,
      "count": 117,
      "max": [
        3.3333332538604736
      ],
      "min": [
        0
      ],
      "type": "SCALAR"
    },
    {
      "bufferView": 4,
      "componentType": 5126,
      "count": 117,
      "max": [
        -441.12997436523438,
        446.72344970703125,
        379.96356201171875
      ],
      "min": [
        -468.78619384765625,
        446.72344970703125,
        379.96356201171875
      ],
      "type": "VEC3"
    },
    {
      "bufferView": 3,
      "byteOffset": 468,
      "componentType": 5126,
      "count": 80,
      "max": [
        3.3333332538604736
      ],
      "min": [
        0
      ],
      "type": "SCALAR"
    },
    {
      "bufferView": 5,
      "componentType": 5126,
      "count": 80,
      "max": [
        0.49686136841773987,
        0.66446304321289062,
        0.66446304321289062,
        0.70710676908493042
      ],
      "min": [
        -0.70710676908493042,
        -0.456706702709198,
        -0.456706702709198,
        -0.49686136841773987
      ],
      "type": "VEC4"
    },
    {
      "bufferView": 3,
      "byteOffset": 788,
      "componentType": 5126,
      "count": 80,
      "max": [
        3.3333332538604736
      ],
      "min": [
        0
      ],
      "type": "SCALAR"
    },
    {
      "bufferView": 5,
      "byteOffset": 1280,
      "componentType": 5126,
      "count": 80,
      "max": [
        -0.24184475839138031,
        0.66446304321289062,
        0.66446304321289062,
        0.70710676908493042
      ],
      "min": [
        -0.70710676908493042,
        -1.0536711947395361e-08,
        -1.0536711947395361e-08,
        0.24184475839138031
      ],
      "type": "VEC4"
    },
    {
      "bufferView": 3,
      "byteOffset": 1108,
      "componentType": 5126,
      "count": 79,
      "max": [
        3.3333332538604736
      ],
      "min": [
        0
      ],
      "type": "SCALAR"
    },
    {
      "bufferView": 5,
      "byteOffset": 2560,
      "componentType": 5126,
      "count": 79,
      "max": [
        -0.24184475839138031,
        0.66446304321289062,
        0.66446304321289062,
        0.70710676908493042
      ],
      "min": [
        -0.70710676908493042,
        5.2683559736976804e-09,
        5.2683559736976804e-09,
        0.24184475839138031
      ],
      "type": "VEC4"
    },
    {
      "bufferView": 3,
      "byteOffset": 1424,
      "componentType": 5126,
      "count": 192,
      "max": [
        3.3333332538604736
      ],
      "min": [
        0
      ],
      "type": "SCALAR"
    },
    {
      "bufferView": 4,
      "byteOffset": 1404,
      "componentType": 5126,
      "count": 192,
      "max": [
        -440.21453857421875,
        1350.0712890625,
        379.96356201171875
      ],
      "min": [
        -466.58193969726562,
        1350.0712890625,
        379.96356201171875
      ],
      "type": "VEC3"
    },
    {
      "bufferView": 3,
      "byteOffset": 2192,
      "componentType": 5126,
      "count": 78,
      "max": [
        3.3333332538604736
      ],
      "min": [
        0
      ],
      "type": "SCALAR"
    },
    {
      "bufferView": 5,
      "byteOffset": 3824,
      "componentType": 5126,
      "count": 78,
      "max": [
        0.49686142802238464,
        0.66446298360824585,
        0.66446298360824585,
        0.70710676908493042
      ],
      "min": [
        -0.70710676908493042,
        -0.48189246654510498,
        -0.48189246654510498,
        -0.49686142802238464
      ],
      "type": "VEC4"
    }
  ],
  "animations": [
    {
      "channels": [
        {
          "sampler": 0,
          "target": {
            "node": 9,
            "path": "translation"
          }
        },
        {
          "sampler": 1,
          "target": {
            "node": 9,
            "path": "rotation"
          }
        },
        {
          "sampler": 2,
          "target": {
            "node": 13,
            "path": "rotation"
          }
        },
        {
          "sampler": 3,
          "target": {
            "node": 17,
            "path": "rotation"
          }
        },
        {
          "sampler": 4,
          "target": {
            "node": 21,
            "path": "translation"
          }
        },
        {
          "sampler": 5,
          "target": {
            "node": 21,
            "path": "rotation"
          }
        }
      ],
      "name": "Take 001",
      "samplers": [
        {
          "input": 20,
          "interpolation": "LINEAR",
          "output": 21
        },
        {
          "input": 22,
          "interpolation": "LINEAR",
          "output": 23
        },
        {
          "input": 24,
          "interpolation": "LINEAR",
          "output": 25
        },
        {
          "input": 26,
          "interpolation": "LINEAR",
          "output": 27
        },
        {
          "input": 28,
          "interpolation": "LINEAR",
          "output": 29
        },
        {
          "input": 30,
          "interpolation": "LINEAR",
          "output": 31
        }
      ]
    }
  ],
  "asset": {
    "generator": "Sketchfab (OSG glTF plugin)",
    "version": "2.0"
  },
  "bufferViews": [
    {
      "buffer": 0,
      "byteLength": 18732,
      "byteOffset": 0,
      "name": "floatBufferViews",
      "target": 34963
    },
    {
      "buffer": 0,
      "byteLength": 42192,
      "byteOffset": 18732,
      "byteStride": 12,
      "name": "floatBufferViews",
      "target": 34962
    },
    {
      "buffer": 0,
      "byteLength": 28128,
      "byteOffset": 60924,
      "byteStride": 16,
      "name": "floatBufferViews",
      "target": 34962
    },
    {
      "buffer": 0,
      "byteLength": 2504,
      "byteOffset": 89052,
      "name": "floatBufferViews"
    },
    {
      "buffer": 0,
      "byteLength": 3708,
      "byteOffset": 91556,
      "byteStride": 12,
      "name": "floatBufferViews"
    },
    {
      "buffer": 0,
      "byteLength": 5072,
      "byteOffset": 95264,
      "byteStride": 16,
      "name": "floatBufferViews"
    }
  ],
  "buffers": [
    {
      "byteLength": 100336,
      "uri": "scene.bin"
    }
  ],
  "materials": [
    {
      "doubleSided": true,
      "emissiveFactor": [
        0,
        0,
        0
      ],
      "name": "RootNode",
      "pbrMetallicRoughness": {
        "baseColorFactor": [
          1,
          1,
          1,
          1
        ],
        "metallicFactor": 0,
        "roughnessFactor": 0.59999999999999998
      }
    }
  ],
  "meshes": [
    {
      "name": "Main Body__0",
      "primitives": [
        {
          "attributes": {
            "NORMAL": 1,
            "POSITION": 0,
            "TANGENT": 2
          },
          "indices": 3,
          "material": 0,
          "mode": 4
        }
      ]
    },
    {
      "name": "Door B__0",
      "primitives": [
        {
          "attributes": {
            "NORMAL": 5,
            "POSITION": 4,
            "TANGENT": 6
          },
          "indices": 7,
          "material": 0,
          "mode": 4
        }
      ]
    },
    {
      "name": "Door T__0",
      "primitives": [
        {
          "attributes": {
            "NORMAL": 9,
            "POSITION": 8,
            "TANGENT": 10
          },
          "indices": 11,
          "material": 0,
          "mode": 4
        }
      ]
    },
    {
      "name": "Door B R__0",
      "primitives": [
        {
          "attributes": {
            "NORMAL": 13,
            "POSITION": 12,
            "TANGENT": 14
          },
          "indices": 15,
          "material": 0,
          "mode": 4
        }
      ]
    },
    {
      "name": "Door T R__0",
      "primitives": [
        {
          "attributes": {
            "NORMAL": 17,
            "POSITION": 16,
            "TANGENT": 18
          },
          "indices": 19,
          "material": 0,
          "mode": 4
        }
      ]
    }
  ],
  "nodes": [
    {
      "children": [
        1
      ],
      "name": "RootNode (gltf orientation matrix)",
      "rotation": [
        -0.70710678118654746,
        -0,
        -0,
        0.70710678118654757
      ]
    },
    {
      "children": [
        2
      ],
      "name": "RootNode (model correction matrix)"
    },
    {
      "children": [
        3
      ],
      "matrix": [
        1,
        0,
        0,
        0,
        0,
        0,
        1,
        0,
        0,
        -1,
        0,
        0,
        0,
        0,
        0,
        1
      ],
      "name": "a7e4d49e07db4a56a1256eea805f2bae.fbx"
    },
    {
      "children": [
        4
      ],
      "name": ""
    },
    {
      "children": [
        5,
        9,
        13,
        17,
        21
      ],
      "name": "RootNode"
    },
    {
      "children": [
        6
      ],
      "name": "Main Body",
      "rotation": [
        -0.7071068286895752,
        -0,
        0,
        0.7071068286895752
      ],
      "translation": [
        0,
        894.5,
        0
      ]
    },
    {
      "children": [
        7
      ],
      "matrix": [
        1,
        0,
        -0,
        0,
        0,
        1,
        0,
        0,
        0,
        0,
        1,
        0,
        0,
        0,
        -894.5,
        1
      ],
      "name": ""
    },
    {
      "children": [
        8
      ],
      "name": "Geode"
    },
    {
      "mesh": 0,
      "name": "Main Body__0"
    },
    {
      "children": [
        10
      ],
      "name": "Door B",
      "rotation": [
        -0.7071068286895752,
        -0,
        0,
        0.7071068286895752
      ],
      "translation": [
        -468.78619384765625,
        446.72344970703125,
        379.96356201171875
      ]
    },
    {
      "children": [
        11
      ],
      "matrix": [
        1,
        0,
        -0,
        0,
        0,
        1,
        0,
        0,
        0,
        0,
        1,
        0,
        -1981.656494140625,
        -355.93853759765625,
        -440.57308959960938,
        1
      ],
      "name": ""
    },
    {
      "children": [
        12
      ],
      "name": "Geode"
    },
    {
      "mesh": 1,
      "name": "Door B__0"
    },
    {
      "children": [
        14
      ],
      "name": "Door T",
      "rotation": [
        -0.7071068286895752,
        -1.053671283557378e-08,
        -1.053671283557378e-08,
        0.7071068286895752
      ],
      "translation": [
        452.8515625,
        1341.063232421875,
        372.58920288085938
      ]
    },
    {
      "children": [
        15
      ],
      "matrix": [
        1,
        0,
        -0,
        0,
        0,
        1,
        0,
        0,
        0,
        0,
        1,
        0,
        -1639.43896484375,
        -361.072998046875,
        -1341.063232421875,
        1
      ],
      "name": ""
    },
    {
      "children": [
        16
      ],
      "name": "Geode"
    },
    {
      "mesh": 2,
      "name": "Door T__0"
    },
    {
      "children": [
        18
      ],
      "name": "Door B R",
      "rotation": [
        -0.7071068286895752,
        5.2683564177868902e-09,
        5.2683564177868902e-09,
        0.7071068286895752
      ],
      "translation": [
        452.71292114257812,
        442.16439819335938,
        376.68701171875
      ]
    },
    {
      "children": [
        19
      ],
      "matrix": [
        1,
        0,
        -0,
        0,
        0,
        1,
        0,
        0,
        0,
        0,
        1,
        0,
        -1318.4188232421875,
        -359.64840698242188,
        -442.16439819335938,
        1
      ],
      "name": ""
    },
    {
      "children": [
        20
      ],
      "name": "Geode"
    },
    {
      "mesh": 3,
      "name": "Door B R__0"
    },
    {
      "children": [
        22
      ],
      "name": "Door T R",
      "rotation": [
        -0.7071068286895752,
        5.2683564177868902e-09,
        5.2683564177868902e-09,
        0.7071068286895752
      ],
      "translation": [
        -466.58193969726562,
        1350.0712890625,
        379.96356201171875
      ]
    },
    {
      "children": [
        23
      ],
      "matrix": [
        1,
        0,
        -0,
        0,
        0,
        1,
        0,
        0,
        0,
        0,
        1,
        0,
        -1981.656494140625,
        -355.93853759765625,
        -440.57308959960938,
        1
      ],
      "name": ""
    },
    {
      "children": [
        24
      ],
      "name": "Geode"
    },
    {
      "mesh": 4,
      "name": "Door T R__0"
    }
  ],
  "scene": 0,
  "scenes": [
    {
      "name": "OSG_Scene",
      "nodes": [
        0
      ]
    }
  ]
}

